<?xml version="1.0" encoding="UTF-8" standalone="no"?>
<!-- Created with Inkscape (http://www.inkscape.org/) -->

<svg
   xmlns:dc="http://purl.org/dc/elements/1.1/"
   xmlns:cc="http://creativecommons.org/ns#"
   xmlns:rdf="http://www.w3.org/1999/02/22-rdf-syntax-ns#"
   xmlns:svg="http://www.w3.org/2000/svg"
   xmlns="http://www.w3.org/2000/svg"
   xmlns:xlink="http://www.w3.org/1999/xlink"
   xmlns:sodipodi="http://sodipodi.sourceforge.net/DTD/sodipodi-0.dtd"
   xmlns:inkscape="http://www.inkscape.org/namespaces/inkscape"
   width="86"
   height="86"
   id="svg2"
   version="1.1"
   inkscape:version="0.48.4 r9939"
   sodipodi:docname="icon.svg"
   inkscape:export-filename="../harbour-passy.png"
   inkscape:export-xdpi="90"
   inkscape:export-ydpi="90">
  <defs
     id="defs4">
    <linearGradient
       inkscape:collect="always"
       id="linearGradient3814">
      <stop
         style="stop-color:#4d4d4d;stop-opacity:1"
         offset="0"
         id="stop3816" />
      <stop
         style="stop-color:#484848;stop-opacity:1"
         offset="1"
         id="stop3818" />
    </linearGradient>
    <linearGradient
       id="linearGradient3789-6">
      <stop
         style="stop-color:#f6e1a2;stop-opacity:1;"
         offset="0"
         id="stop3791-0" />
      <stop
         style="stop-color:#a0d026;stop-opacity:1;"
         offset="1"
         id="stop3793-4" />
    </linearGradient>
    <clipPath
       clipPathUnits="userSpaceOnUse"
       id="clipPath3885">
      <path
         style="fill:#222222;fill-opacity:1;stroke:none"
         d="m 47.8033,26.944544 c -6.903559,0 -12.5,5.596441 -12.5,12.5 0,3.883252 1.78441,7.363566 4.5625,9.65625 l -4.5625,22.84375 25,0 -4.5625,-22.84375 c 2.77809,-2.292684 4.5625,-5.772998 4.5625,-9.65625 0,-6.903559 -5.596441,-12.5 -12.5,-12.5 z"
         id="path3887"
         inkscape:connector-curvature="0" />
    </clipPath>
    <radialGradient
       inkscape:collect="always"
       xlink:href="#linearGradient3789-6"
       id="radialGradient3812"
       cx="53.606602"
       cy="20.837048"
       fx="53.606602"
       fy="20.837048"
       r="43"
       gradientUnits="userSpaceOnUse" />
    <linearGradient
       inkscape:collect="always"
       xlink:href="#linearGradient3814"
       id="linearGradient3820"
       x1="44.495686"
       y1="71.566757"
       x2="48.509518"
       y2="24.367378"
       gradientUnits="userSpaceOnUse" />
  </defs>
  <sodipodi:namedview
     id="base"
     pagecolor="#ffffff"
     bordercolor="#666666"
     borderopacity="1.0"
     inkscape:pageopacity="0.0"
     inkscape:pageshadow="2"
     inkscape:zoom="5.6568542"
     inkscape:cx="-17.731921"
     inkscape:cy="36.776055"
     inkscape:document-units="px"
     inkscape:current-layer="layer2"
     showgrid="true"
     inkscape:window-width="1920"
     inkscape:window-height="1029"
     inkscape:window-x="0"
     inkscape:window-y="26"
     inkscape:window-maximized="1"
     inkscape:snap-bbox="true"
     inkscape:snap-global="false">
    <inkscape:grid
       type="xygrid"
       id="grid2985"
       empspacing="5"
       visible="true"
       enabled="true"
       snapvisiblegridlinesonly="true" />
  </sodipodi:namedview>
  <metadata
     id="metadata7">
    <rdf:RDF>
      <cc:Work
         rdf:about="">
        <dc:format>image/svg+xml</dc:format>
        <dc:type
           rdf:resource="http://purl.org/dc/dcmitype/StillImage" />
        <dc:title></dc:title>
      </cc:Work>
    </rdf:RDF>
  </metadata>
  <g
     inkscape:groupmode="layer"
     id="layer2"
     inkscape:label="Ebene"
     style="display:inline"
     transform="translate(0,-4)">
    <path
       id="path3854"
       transform="translate(0,4)"
       d="M 42.5 21 C 35.596441 21 30 26.596441 30 33.5 C 30 37.383252 31.78441 40.863566 34.5625 43.15625 L 30 66 L 55 66 L 50.4375 43.15625 C 53.21559 40.863566 55 37.383252 55 33.5 C 55 26.596441 49.403559 21 42.5 21 z "
       style="fill:#222222;fill-opacity:1;stroke:none" />
    <path
       style="fill:url(#radialGradient3812);fill-opacity:1;stroke:none;display:inline"
       d="m 43,4 c 23.748244,0 43,19.251756 43,43 l 0,40.790278 C 86,89.01865 85.01865,90 83.790278,90 L 43,90 C 19.251756,90 0,70.748244 0,47 0,23.251756 19.251756,4 43,4 z"
       id="rect3059"
       inkscape:connector-curvature="0" />
    <path
       style="fill:#222222;fill-opacity:1;stroke:none;display:inline"
       d="m 43.133515,25.073593 c -6.903559,0 -12.5,5.596441 -12.5,12.5 0,3.883252 1.78441,7.363566 4.5625,9.65625 l -4.5625,22.84375 25,0 -4.5625,-22.84375 c 2.77809,-2.292684 4.5625,-5.772998 4.5625,-9.65625 0,-6.903559 -5.596441,-12.5 -12.5,-12.5 z"
       id="path3815-6"
       inkscape:connector-curvature="0" />
    <path
       style="fill:url(#linearGradient3820);fill-opacity:1;stroke:none"
       d="m 45.37868,25.934136 c -6.903559,0 -12.5,5.596441 -12.5,12.5 0,3.883252 1.78441,7.363566 4.5625,9.65625 l -4.5625,22.84375 25,0 -4.5625,-22.84375 c 2.77809,-2.292684 4.5625,-5.772998 4.5625,-9.65625 0,-6.903559 -5.596441,-12.5 -12.5,-12.5 z"
       id="path3825"
       inkscape:connector-curvature="0"
       clip-path="url(#clipPath3885)"
       transform="matrix(-1,0,0,1,88.585786,-0.88388348)" />
  </g>
</svg>
